<mxfile host="app.diagrams.net" modified="2022-07-10T12:17:02.085Z" agent="5.0 (Windows)" etag="iXGPvi7VMz0udLCrjBgs" version="20.0.1" type="github">
  <diagram id="3rYCbEd0zkkZ-dNJcZxi" name="Page-1">
    <mxGraphModel dx="1023" dy="493" grid="1" gridSize="10" guides="1" tooltips="1" connect="1" arrows="1" fold="1" page="1" pageScale="1" pageWidth="827" pageHeight="1169" math="0" shadow="0">
      <root>
        <mxCell id="0" />
        <mxCell id="1" parent="0" />
        <mxCell id="Q3uOGicDG-9tAQ61zbui-1" value="Text" style="text;html=1;strokeColor=none;fillColor=none;align=center;verticalAlign=middle;whiteSpace=wrap;rounded=0;" vertex="1" parent="1">
          <mxGeometry x="430" y="130" width="60" height="30" as="geometry" />
        </mxCell>
        <mxCell id="Q3uOGicDG-9tAQ61zbui-2" value="&lt;h1&gt;Hybrid Srategy&lt;br&gt;&lt;/h1&gt;&lt;p&gt;This document outlines hybrid eSignature strategy&lt;br&gt;&lt;/p&gt;" style="text;html=1;strokeColor=none;fillColor=none;spacing=5;spacingTop=-20;whiteSpace=wrap;overflow=hidden;rounded=0;" vertex="1" parent="1">
          <mxGeometry x="30" y="20" width="340" height="120" as="geometry" />
        </mxCell>
        <mxCell id="Q3uOGicDG-9tAQ61zbui-9" style="edgeStyle=orthogonalEdgeStyle;rounded=0;orthogonalLoop=1;jettySize=auto;html=1;entryX=1;entryY=0.5;entryDx=0;entryDy=0;" edge="1" parent="1" source="Q3uOGicDG-9tAQ61zbui-3" target="Q3uOGicDG-9tAQ61zbui-4">
          <mxGeometry relative="1" as="geometry" />
        </mxCell>
        <mxCell id="Q3uOGicDG-9tAQ61zbui-3" value="NodeJS Server" style="rounded=0;whiteSpace=wrap;html=1;fillColor=#d5e8d4;strokeColor=#82b366;" vertex="1" parent="1">
          <mxGeometry x="710" y="280" width="120" height="60" as="geometry" />
        </mxCell>
        <mxCell id="Q3uOGicDG-9tAQ61zbui-4" value="Profile Service" style="rounded=0;whiteSpace=wrap;html=1;" vertex="1" parent="1">
          <mxGeometry x="560" y="280" width="120" height="60" as="geometry" />
        </mxCell>
        <mxCell id="Q3uOGicDG-9tAQ61zbui-7" style="edgeStyle=orthogonalEdgeStyle;rounded=0;orthogonalLoop=1;jettySize=auto;html=1;entryX=0;entryY=0.5;entryDx=0;entryDy=0;" edge="1" parent="1" source="Q3uOGicDG-9tAQ61zbui-5" target="Q3uOGicDG-9tAQ61zbui-6">
          <mxGeometry relative="1" as="geometry" />
        </mxCell>
        <mxCell id="Q3uOGicDG-9tAQ61zbui-5" value="Certificatum Naming Service" style="rounded=0;whiteSpace=wrap;html=1;" vertex="1" parent="1">
          <mxGeometry x="560" y="410" width="120" height="60" as="geometry" />
        </mxCell>
        <mxCell id="Q3uOGicDG-9tAQ61zbui-6" value="Profile Contract" style="rounded=0;whiteSpace=wrap;html=1;fillColor=#e1d5e7;strokeColor=#9673a6;" vertex="1" parent="1">
          <mxGeometry x="710" y="410" width="120" height="60" as="geometry" />
        </mxCell>
        <mxCell id="Q3uOGicDG-9tAQ61zbui-10" value="IPFS Node" style="rounded=0;whiteSpace=wrap;html=1;fillColor=#dae8fc;strokeColor=#6c8ebf;" vertex="1" parent="1">
          <mxGeometry x="40" y="370" width="120" height="60" as="geometry" />
        </mxCell>
        <mxCell id="Q3uOGicDG-9tAQ61zbui-11" value="" style="endArrow=none;html=1;rounded=0;" edge="1" parent="1">
          <mxGeometry width="50" height="50" relative="1" as="geometry">
            <mxPoint x="480" y="410" as="sourcePoint" />
            <mxPoint x="530" y="360" as="targetPoint" />
          </mxGeometry>
        </mxCell>
      </root>
    </mxGraphModel>
  </diagram>
</mxfile>
